<svg width="20" height="20" viewBox="0 0 20 20" fill="none" xmlns="http://www.w3.org/2000/svg">
<path d="M11.9667 3.39917L12.7392 2.62667C13.3537 2.01214 14.1872 1.6669 15.0563 1.6669C15.9253 1.6669 16.7588 2.01214 17.3733 2.62667C17.9879 3.2412 18.3331 4.07468 18.3331 4.94375C18.3331 5.81283 17.9879 6.64631 17.3733 7.26084L16.6008 8.03334M11.9667 3.39917C11.9667 3.39917 12.0633 5.04083 13.5117 6.48833C14.96 7.93667 16.6008 8.03334 16.6008 8.03334M11.9667 3.39917L10 5.36583M16.6008 8.03334L12.2175 12.4175L9.63334 15L9.5 15.1342C9.01834 15.615 8.77751 15.8558 8.51251 16.0625C8.19961 16.3063 7.86125 16.5156 7.50334 16.6867C7.2 16.8308 6.8775 16.9383 6.23167 17.1533L3.49751 18.065M3.49751 18.065L2.82917 18.2883C2.67338 18.3406 2.50611 18.3483 2.34616 18.3107C2.18621 18.2731 2.03992 18.1916 1.92373 18.0754C1.80754 17.9593 1.72607 17.813 1.68846 17.653C1.65085 17.4931 1.6586 17.3258 1.71084 17.17L1.93417 16.5017M3.49751 18.065L1.93417 16.5017M1.93417 16.5017L2.84584 13.7675C3.06084 13.1217 3.16834 12.7992 3.3125 12.4958C3.48417 12.1364 3.69223 11.8 3.93667 11.4867C4.14334 11.2217 4.38417 10.9808 4.865 10.5L7.08334 8.2825" stroke="black" stroke-width="1.5" stroke-linecap="round"/>
</svg>
