<svg width="22" height="18" viewBox="0 0 22 18" fill="none" xmlns="http://www.w3.org/2000/svg">
<path d="M3.625 0.625H18.25C19.1451 0.625 20.0036 0.980579 20.6365 1.61351C21.2694 2.24645 21.625 3.10489 21.625 4V14.125C21.625 15.0201 21.2694 15.8786 20.6365 16.5115C20.0036 17.1444 19.1451 17.5 18.25 17.5H3.625C2.72989 17.5 1.87145 17.1444 1.23851 16.5115C0.605579 15.8786 0.25 15.0201 0.25 14.125V4C0.25 3.10489 0.605579 2.24645 1.23851 1.61351C1.87145 0.980579 2.72989 0.625 3.625 0.625ZM3.625 1.75C3.0625 1.75 2.5675 1.94125 2.185 2.27875L10.9375 7.9375L19.69 2.27875C19.3075 1.94125 18.8125 1.75 18.25 1.75H3.625ZM10.9375 9.29875L1.52125 3.19C1.43125 3.4375 1.375 3.71875 1.375 4V14.125C1.375 14.7217 1.61205 15.294 2.03401 15.716C2.45597 16.1379 3.02826 16.375 3.625 16.375H18.25C18.8467 16.375 19.419 16.1379 19.841 15.716C20.2629 15.294 20.5 14.7217 20.5 14.125V4C20.5 3.71875 20.4438 3.4375 20.3538 3.19L10.9375 9.29875Z" fill="black"/>
</svg>
